 <svg width="284" height="280" xmlns="http://www.w3.org/2000/svg" viewBox="-46.69689331054684 14 593.3937866210937 122" className="background: rgb(29, 14, 11);" preserveAspectRatio="xMidYMid"><defs><filter id="editing-vr"><feFlood flood-color="#d88c51" flood-opacity="0.7" result="c1"></feFlood><feFlood flood-color="#f3e7c9" flood-opacity="0.7" result="c3"></feFlood><feComposite operator="in" in="c1" in2="SourceAlpha" result="text-c1"></feComposite><feComposite operator="in" in="c3" in2="SourceAlpha" result="text-c3"></feComposite><feOffset in="text-c1" dx="5" dy="-1" result="text1"></feOffset><feOffset in="text-c3" dx="-5" dy="1" result="text3"></feOffset><feBlend in="SourceGraphic" in2="text1" mode="multiply" result="text4"></feBlend><feBlend in="text4" in2="text3" mode="multiply"></feBlend></filter></defs><g filter="url(#editing-vr)"><g transform="translate(39.66499403119087, 104.76000022888184)"><path d="M0.45-0.32L0.45-0.32L8.51-42.24L8.51-42.24Q16.06-42.88 20.93-42.88L20.93-42.88L20.93-42.88Q25.79-42.88 28.93-42.46L28.93-42.46L28.93-42.46Q32.06-42.05 34.18-40.96L34.18-40.96L34.18-40.96Q38.40-38.91 38.40-33.28L38.40-33.28L38.40-33.28Q38.40-30.02 35.58-27.26L35.58-27.26L35.58-27.26Q32.96-24.77 30.08-24.19L30.08-24.19L30.08-24.19Q33.15-23.68 35.33-21.38L35.33-21.38L35.33-21.38Q37.63-18.94 37.63-15.17L37.63-15.17L37.63-15.17Q37.63-7.87 32.19-3.62L32.19-3.62L32.19-3.62Q26.75 0.64 16.06 0.64L16.06 0.64L16.06 0.64Q8.70 0.64 0.45-0.32ZM17.86-20.61L14.66-4.03L14.66-4.03Q15.23-3.97 15.36-3.97L15.36-3.97L15.94-3.97L15.94-3.97Q21.18-3.97 23.42-7.42L23.42-7.42L23.42-7.42Q25.09-10.11 25.09-15.04L25.09-15.04L25.09-15.04Q25.09-17.66 23.39-19.07L23.39-19.07L23.39-19.07Q21.70-20.48 17.86-20.61L17.86-20.61ZM27.58-33.22L27.58-33.22L27.58-33.22Q27.58-38.53 22.46-38.53L22.46-38.53L21.89-38.53L21.89-38.53Q21.63-38.53 21.25-38.46L21.25-38.46L18.69-24.96L19.33-24.96L19.33-24.96Q27.58-25.15 27.58-33.22ZM67.78-10.82L67.78-10.82L67.78-10.82Q69.38-9.73 69.38-7.33L69.38-7.33L69.38-7.33Q69.38-4.93 68.16-3.39L68.16-3.39L68.16-3.39Q66.94-1.86 64.96-0.83L64.96-0.83L64.96-0.83Q60.86 1.28 56.45 1.28L56.45 1.28L56.45 1.28Q52.03 1.28 49.44 0.32L49.44 0.32L49.44 0.32Q46.85-0.64 45.12-2.43L45.12-2.43L45.12-2.43Q41.73-5.82 41.73-12.03L41.73-12.03L41.73-12.03Q41.73-21.70 46.98-27.58L46.98-27.58L46.98-27.58Q52.61-33.92 62.40-33.92L62.40-33.92L62.40-33.92Q68.48-33.92 71.49-31.36L71.49-31.36L71.49-31.36Q73.73-29.44 73.73-26.30L73.73-26.30L73.73-26.30Q73.73-15.04 54.27-15.04L54.27-15.04L54.27-15.04Q54.02-13.38 54.02-11.97L54.02-11.97L54.02-11.97Q54.02-9.02 55.33-7.90L55.33-7.90L55.33-7.90Q56.64-6.78 59.07-6.78L59.07-6.78L59.07-6.78Q61.50-6.78 64.10-7.90L64.10-7.90L64.10-7.90Q66.69-9.02 67.78-10.82ZM54.72-17.79L54.72-17.79L54.72-17.79Q59.26-17.79 61.89-20.61L61.89-20.61L61.89-20.61Q64.51-23.30 64.51-27.58L64.51-27.58L64.51-27.58Q64.51-29.06 63.97-29.86L63.97-29.86L63.97-29.86Q63.42-30.66 62.34-30.66L62.34-30.66L62.34-30.66Q61.25-30.66 60.32-30.24L60.32-30.24L60.32-30.24Q59.39-29.82 58.43-28.42L58.43-28.42L58.43-28.42Q56.06-25.22 54.72-17.79ZM76.93-6.40L76.93-6.40L76.93-6.40Q76.93-8.13 77.82-12.48L77.82-12.48L81.22-29.76L77.44-29.76L77.70-31.68L77.70-31.68Q85.38-33.98 92.80-39.62L92.80-39.62L95.87-39.62L94.34-32.64L99.33-32.64L98.75-29.76L93.82-29.76L90.56-12.48L90.56-12.48Q89.73-8.51 89.73-7.17L89.73-7.17L89.73-7.17Q89.73-4.10 92.42-3.46L92.42-3.46L92.42-3.46Q91.78-1.28 89.47 0L89.47 0L89.47 0Q87.17 1.28 83.90 1.28L83.90 1.28L83.90 1.28Q80.64 1.28 78.78-0.77L78.78-0.77L78.78-0.77Q76.93-2.82 76.93-6.40ZM101.54-1.92L101.54-1.92L101.54-1.92Q100.03-3.58 99.36-6.21L99.36-6.21L99.36-6.21Q98.69-8.83 98.69-13.12L98.69-13.12L98.69-13.12Q98.69-17.41 100.16-21.31L100.16-21.31L100.16-21.31Q101.63-25.22 104.32-28.03L104.32-28.03L104.32-28.03Q109.82-33.92 118.91-33.92L118.91-33.92L118.91-33.92Q122.18-33.92 124.54-32.83L124.54-32.83L135.49-33.92L130.75-8.96L130.75-8.96Q130.56-8.19 130.56-6.78L130.56-6.78L130.56-6.78Q130.56-5.38 131.42-4.48L131.42-4.48L131.42-4.48Q132.29-3.58 133.57-3.46L133.57-3.46L133.57-3.46Q132.93-1.28 130.59 0L130.59 0L130.59 0Q128.26 1.28 125.63 1.28L125.63 1.28L125.63 1.28Q123.01 1.28 121.25 0.29L121.25 0.29L121.25 0.29Q119.49-0.70 118.98-2.37L118.98-2.37L118.98-2.37Q117.95-0.77 115.78 0.26L115.78 0.26L115.78 0.26Q113.60 1.28 110.69 1.28L110.69 1.28L110.69 1.28Q107.78 1.28 105.41 0.51L105.41 0.51L105.41 0.51Q103.04-0.26 101.54-1.92ZM115.04-27.90L115.04-27.90L115.04-27.90Q114.30-26.75 113.66-24.80L113.66-24.80L113.66-24.80Q113.02-22.85 111.97-17.63L111.97-17.63L111.97-17.63Q110.91-12.42 110.91-8.70L110.91-8.70L110.91-8.70Q110.91-4.99 111.49-3.90L111.49-3.90L111.49-3.90Q112.06-2.82 113.09-2.82L113.09-2.82L113.09-2.82Q115.14-2.82 116.64-4.77L116.64-4.77L116.64-4.77Q118.14-6.72 118.72-10.18L118.72-10.18L122.11-28.93L122.11-28.93Q120.77-30.08 119.20-30.08L119.20-30.08L119.20-30.08Q117.63-30.08 116.70-29.57L116.70-29.57L116.70-29.57Q115.78-29.06 115.04-27.90ZM177.09-29.57L177.09-29.57L177.09-29.57Q178.05-31.49 178.05-33.28L178.05-33.28L178.05-33.28Q178.05-35.07 177.86-36.06L177.86-36.06L177.86-36.06Q177.66-37.06 177.22-37.82L177.22-37.82L177.22-37.82Q176.26-39.49 174.34-39.49L174.34-39.49L174.34-39.49Q171.97-39.49 170.05-37.76L170.05-37.76L170.05-37.76Q168-35.97 168-33.15L168-33.15L168-33.15Q168-31.36 169.25-29.98L169.25-29.98L169.25-29.98Q170.50-28.61 172.42-27.33L172.42-27.33L172.42-27.33Q174.34-26.05 176.51-24.77L176.51-24.77L176.51-24.77Q178.69-23.49 180.61-21.95L180.61-21.95L180.61-21.95Q185.02-18.43 185.02-13.70L185.02-13.70L185.02-13.70Q185.02-10.50 183.33-7.78L183.33-7.78L183.33-7.78Q181.63-5.06 178.82-3.07L178.82-3.07L178.82-3.07Q172.67 1.28 164.54 1.28L164.54 1.28L164.54 1.28Q157.95 1.28 154.56-0.86L154.56-0.86L154.56-0.86Q151.17-3.01 151.17-6.27L151.17-6.27L151.17-6.27Q151.17-12.10 155.71-13.57L155.71-13.57L155.71-13.57Q156.99-14.02 158.94-14.02L158.94-14.02L158.94-14.02Q160.90-14.02 163.14-13.18L163.14-13.18L163.14-13.18Q162.11-10.56 162.11-8.19L162.11-8.19L162.11-8.19Q162.11-3.07 165.76-3.07L165.76-3.07L165.76-3.07Q168.13-3.07 170.08-4.80L170.08-4.80L170.08-4.80Q172.03-6.53 172.03-8.48L172.03-8.48L172.03-8.48Q172.03-10.43 170.78-11.84L170.78-11.84L170.78-11.84Q169.54-13.25 167.68-14.37L167.68-14.37L167.68-14.37Q165.82-15.49 163.68-16.58L163.68-16.58L163.68-16.58Q161.54-17.66 159.68-19.20L159.68-19.20L159.68-19.20Q155.33-22.72 155.33-28.35L155.33-28.35L155.33-28.35Q155.33-32 157.12-34.85L157.12-34.85L157.12-34.85Q158.91-37.70 161.79-39.62L161.79-39.62L161.79-39.62Q167.55-43.52 174.62-43.52L174.62-43.52L174.62-43.52Q181.70-43.52 185.12-41.41L185.12-41.41L185.12-41.41Q188.54-39.30 188.54-35.71L188.54-35.71L188.54-35.71Q188.54-32.58 186.11-30.59L186.11-30.59L186.11-30.59Q184-28.93 181.44-28.93L181.44-28.93L181.44-28.93Q178.88-28.93 177.09-29.57ZM219.71-4.38L219.71-4.38L219.71-4.38Q217.02-1.66 213.34-0.19L213.34-0.19L213.34-0.19Q209.66 1.28 206.02 1.28L206.02 1.28L206.02 1.28Q202.37 1.28 201.09 0.64L201.09 0.64L199.10 11.52L186.11 12.80L194.94-32.64L205.38-33.73L204.54-29.31L204.54-29.31Q207.23-33.86 212.80-33.86L212.80-33.86L212.80-33.86Q219.07-33.86 222.40-29.82L222.40-29.82L222.40-29.82Q225.34-26.18 225.34-20.61L225.34-20.61L225.34-20.61Q225.34-15.04 223.87-11.07L223.87-11.07L223.87-11.07Q222.40-7.10 219.71-4.38ZM205.25-22.34L201.86-3.58L201.86-3.58Q203.20-2.43 204.86-2.43L204.86-2.43L204.86-2.43Q206.53-2.43 207.49-3.07L207.49-3.07L207.49-3.07Q208.45-3.71 209.15-4.99L209.15-4.99L209.15-4.99Q211.07-8.45 212.61-18.94L212.61-18.94L212.61-18.94Q213.06-22.02 213.06-25.02L213.06-25.02L213.06-25.02Q213.06-28.03 212.38-28.99L212.38-28.99L212.38-28.99Q211.71-29.95 210.43-29.95L210.43-29.95L210.43-29.95Q206.53-29.95 205.25-22.34L205.25-22.34ZM243.14 1.28L243.14 1.28L243.14 1.28Q229.06 1.28 229.06-11.97L229.06-11.97L229.06-11.97Q229.06-21.38 234.24-27.46L234.24-27.46L234.24-27.46Q239.74-33.92 249.28-33.92L249.28-33.92L249.28-33.92Q256.19-33.92 259.71-30.72L259.71-30.72L259.71-30.72Q263.23-27.52 263.23-20.80L263.23-20.80L263.23-20.80Q263.23-10.56 257.73-4.61L257.73-4.61L257.73-4.61Q252.35 1.28 243.14 1.28ZM244.80-26.56L244.80-26.56L244.80-26.56Q244.03-24.83 243.42-22.24L243.42-22.24L243.42-22.24Q242.82-19.65 242.05-15.55L242.05-15.55L242.05-15.55Q241.28-11.46 241.28-6.40L241.28-6.40L241.28-6.40Q241.28-4.74 241.82-3.65L241.82-3.65L241.82-3.65Q242.37-2.56 243.84-2.56L243.84-2.56L243.84-2.56Q245.31-2.56 246.24-3.26L246.24-3.26L246.24-3.26Q247.17-3.97 247.87-5.63L247.87-5.63L247.87-5.63Q249.15-8.58 250.18-14.05L250.18-14.05L250.18-14.05Q251.20-19.52 251.30-21.89L251.30-21.89L251.30-21.89Q251.39-24.26 251.39-26.02L251.39-26.02L251.39-26.02Q251.39-27.78 250.88-28.93L250.88-28.93L250.88-28.93Q250.37-30.08 248.93-30.08L248.93-30.08L248.93-30.08Q247.49-30.08 246.53-29.18L246.53-29.18L246.53-29.18Q245.57-28.29 244.80-26.56ZM287.04-17.98L287.04-17.98L287.04-17.98Q289.34-22.08 289.34-26.24L289.34-26.24L289.34-26.24Q289.34-28.99 287.36-28.99L287.36-28.99L287.36-28.99Q285.82-28.99 284.22-26.37L284.22-26.37L284.22-26.37Q282.56-23.74 282.05-20.35L282.05-20.35L278.72 0L265.47 1.28L272.00-32.64L282.56-33.92L281.41-27.46L281.41-27.46Q284.54-33.92 291.58-33.92L291.58-33.92L291.58-33.92Q295.30-33.92 297.31-32L297.31-32L297.31-32Q299.33-30.08 299.33-26.14L299.33-26.14L299.33-26.14Q299.33-22.21 296.74-19.71L296.74-19.71L296.74-19.71Q294.14-17.22 289.73-17.22L289.73-17.22L289.73-17.22Q287.81-17.22 287.04-17.98ZM301.38-6.40L301.38-6.40L301.38-6.40Q301.38-8.13 302.27-12.48L302.27-12.48L305.66-29.76L301.89-29.76L302.14-31.68L302.14-31.68Q309.82-33.98 317.25-39.62L317.25-39.62L320.32-39.62L318.78-32.64L323.78-32.64L323.20-29.76L318.27-29.76L315.01-12.48L315.01-12.48Q314.18-8.51 314.18-7.17L314.18-7.17L314.18-7.17Q314.18-4.10 316.86-3.46L316.86-3.46L316.86-3.46Q316.22-1.28 313.92 0L313.92 0L313.92 0Q311.62 1.28 308.35 1.28L308.35 1.28L308.35 1.28Q305.09 1.28 303.23-0.77L303.23-0.77L303.23-0.77Q301.38-2.82 301.38-6.40ZM338.82-3.52L338.82-3.52L338.82-3.52Q336.83 1.28 330.50 1.28L330.50 1.28L330.50 1.28Q327.23 1.28 325.18-0.96L325.18-0.96L325.18-0.96Q323.46-2.94 323.46-4.93L323.46-4.93L323.46-4.93Q323.46-10.11 325.82-20.22L325.82-20.22L328.19-32.64L341.18-33.92L337.28-13.70L337.28-13.70Q336.19-8.96 336.19-7.30L336.19-7.30L336.19-7.30Q336.19-3.65 338.82-3.52ZM329.34-41.54L329.34-41.54L329.34-41.54Q329.34-44.03 331.42-45.38L331.42-45.38L331.42-45.38Q333.50-46.72 336.51-46.72L336.51-46.72L336.51-46.72Q339.52-46.72 341.34-45.38L341.34-45.38L341.34-45.38Q343.17-44.03 343.17-41.54L343.17-41.54L343.17-41.54Q343.17-39.04 341.15-37.76L341.15-37.76L341.15-37.76Q339.14-36.48 336.13-36.48L336.13-36.48L336.13-36.48Q333.12-36.48 331.23-37.76L331.23-37.76L331.23-37.76Q329.34-39.04 329.34-41.54ZM371.33 1.28L371.33 1.28L371.33 1.28Q363.58 1.28 363.58-4.74L363.58-4.74L363.58-4.74Q363.65-6.40 364.16-9.22L364.16-9.22L365.31-15.10L365.31-15.10Q367.04-23.42 367.04-25.28L367.04-25.28L367.04-25.28Q367.04-28.99 364.86-28.99L364.86-28.99L364.86-28.99Q361.22-28.99 359.30-19.46L359.30-19.46L355.52 0L342.66 1.28L349.31-32.70L359.81-33.92L358.78-27.65L358.78-27.65Q361.79-33.92 371.01-33.92L371.01-33.92L371.01-33.92Q375.49-33.92 377.38-32.03L377.38-32.03L377.38-32.03Q379.26-30.14 379.26-25.92L379.26-25.92L379.26-25.92Q379.26-21.95 377.22-12.67L377.22-12.67L377.22-12.67Q376.26-8.51 376.26-6.94L376.26-6.94L376.26-6.94Q376.26-5.38 377.12-4.48L377.12-4.48L377.12-4.48Q377.98-3.58 379.26-3.46L379.26-3.46L379.26-3.46Q378.62-1.28 376.42 0L376.42 0L376.42 0Q374.21 1.28 371.33 1.28ZM388.93-26.75L388.93-26.75L388.93-26.75Q391.10-29.82 394.40-31.87L394.40-31.87L394.40-31.87Q397.70-33.92 401.73-33.92L401.73-33.92L401.73-33.92Q405.76-33.92 407.68-32.64L407.68-32.64L420.22-33.92L415.87-9.34L415.87-9.34Q413.63 3.20 408.90 8.13L408.90 8.13L408.90 8.13Q404.35 12.80 395.52 12.80L395.52 12.80L395.52 12.80Q388.80 12.80 384.96 10.69L384.96 10.69L384.96 10.69Q381.12 8.58 381.12 5.06L381.12 5.06L381.12 5.06Q381.12 2.43 383.10 0.93L383.10 0.93L383.10 0.93Q385.09-0.58 388.16-0.58L388.16-0.58L388.16-0.58Q390.85-0.58 392.90 0.64L392.90 0.64L392.90 0.64Q394.11 1.28 394.69 2.18L394.69 2.18L394.69 2.18Q393.22 3.46 393.22 5.57L393.22 5.57L393.22 5.57Q393.22 8.32 395.78 8.32L395.78 8.32L395.78 8.32Q400.06 8.32 402.50-1.79L402.50-1.79L402.50-1.79Q403.20-4.54 403.78-7.30L403.78-7.30L403.78-7.30Q400.90-3.78 394.37-3.78L394.37-3.78L394.37-3.78Q389.82-3.78 387.20-5.95L387.20-5.95L387.20-5.95Q384.58-8.13 384.58-13.25L384.58-13.25L384.58-13.25Q384.58-16.45 385.66-20.06L385.66-20.06L385.66-20.06Q386.75-23.68 388.93-26.75ZM397.25-13.06L397.25-13.06L397.25-13.06Q397.25-8.70 399.49-8.70L399.49-8.70L399.49-8.70Q401.02-8.70 402.50-10.37L402.50-10.37L402.50-10.37Q403.65-11.71 404.10-13.70L404.10-13.70L407.36-30.14L407.36-30.14Q407.04-30.21 406.72-30.34L406.72-30.34L406.72-30.34Q406.08-30.59 405.25-30.59L405.25-30.59L405.25-30.59Q401.34-30.59 399.04-24.19L399.04-24.19L399.04-24.19Q397.25-19.20 397.25-13.06Z" fill="#774023"></path></g></g><style>text (
      font-size: 324px;
      height: 300px;
  font-family: Arial Black;
  dominant-baseline: central;
  text-anchor: middle;
    )</style></svg>   